<mxfile host="app.diagrams.net" agent="Mozilla/5.0 (Windows NT 10.0; Win64; x64) AppleWebKit/537.36 (KHTML, like Gecko) Chrome/136.0.0.0 Safari/537.36" version="27.0.6">
  <diagram name="1 oldal" id="k9Oqp2oyT7CyN6iQRObQ">
    <mxGraphModel dx="2316" dy="1171" grid="1" gridSize="10" guides="1" tooltips="1" connect="1" arrows="1" fold="1" page="1" pageScale="1" pageWidth="4681" pageHeight="3300" math="0" shadow="0">
      <root>
        <mxCell id="0" />
        <mxCell id="1" parent="0" />
        <mxCell id="Pr3GQYdpATsWxthIxdoF-1" value="&lt;font style=&quot;vertical-align: inherit;&quot;&gt;&lt;font style=&quot;vertical-align: inherit;&quot;&gt;&lt;font style=&quot;vertical-align: inherit;&quot;&gt;&lt;font style=&quot;vertical-align: inherit;&quot;&gt;Rendeles&lt;/font&gt;&lt;/font&gt;&lt;/font&gt;&lt;/font&gt;" style="ellipse;shape=doubleEllipse;margin=3;whiteSpace=wrap;html=1;align=center;" parent="1" vertex="1">
          <mxGeometry x="2299" y="280" width="100" height="40" as="geometry" />
        </mxCell>
        <mxCell id="Pr3GQYdpATsWxthIxdoF-2" value="&lt;font style=&quot;vertical-align: inherit;&quot;&gt;&lt;font style=&quot;vertical-align: inherit;&quot;&gt;Vendeg&lt;/font&gt;&lt;/font&gt;" style="ellipse;shape=doubleEllipse;margin=3;whiteSpace=wrap;html=1;align=center;" parent="1" vertex="1">
          <mxGeometry x="1833.63" y="270" width="100" height="40" as="geometry" />
        </mxCell>
        <mxCell id="Pr3GQYdpATsWxthIxdoF-3" value="&lt;font style=&quot;vertical-align: inherit;&quot;&gt;&lt;font style=&quot;vertical-align: inherit;&quot;&gt;Gyakornok&lt;/font&gt;&lt;/font&gt;" style="ellipse;shape=doubleEllipse;margin=3;whiteSpace=wrap;html=1;align=center;" parent="1" vertex="1">
          <mxGeometry x="1441" y="270" width="100" height="40" as="geometry" />
        </mxCell>
        <mxCell id="Pr3GQYdpATsWxthIxdoF-4" value="&lt;font style=&quot;vertical-align: inherit;&quot;&gt;&lt;font style=&quot;vertical-align: inherit;&quot;&gt;Szakacs&lt;/font&gt;&lt;/font&gt;" style="ellipse;shape=doubleEllipse;margin=3;whiteSpace=wrap;html=1;align=center;" parent="1" vertex="1">
          <mxGeometry x="1085" y="270" width="100" height="40" as="geometry" />
        </mxCell>
        <mxCell id="Pr3GQYdpATsWxthIxdoF-5" value="&lt;font style=&quot;vertical-align: inherit;&quot;&gt;&lt;font style=&quot;vertical-align: inherit;&quot;&gt;&lt;font style=&quot;vertical-align: inherit;&quot;&gt;&lt;font style=&quot;vertical-align: inherit;&quot;&gt;Foszakacs&lt;/font&gt;&lt;/font&gt;&lt;/font&gt;&lt;/font&gt;" style="ellipse;shape=doubleEllipse;margin=3;whiteSpace=wrap;html=1;align=center;" parent="1" vertex="1">
          <mxGeometry x="730" y="270" width="100" height="40" as="geometry" />
        </mxCell>
        <mxCell id="Pr3GQYdpATsWxthIxdoF-6" value="&lt;font style=&quot;vertical-align: inherit;&quot;&gt;&lt;font style=&quot;vertical-align: inherit;&quot;&gt;Etterem&lt;/font&gt;&lt;/font&gt;" style="ellipse;shape=doubleEllipse;margin=3;whiteSpace=wrap;html=1;align=center;" parent="1" vertex="1">
          <mxGeometry x="311" y="270" width="100" height="40" as="geometry" />
        </mxCell>
        <mxCell id="Pr3GQYdpATsWxthIxdoF-10" value="&lt;font style=&quot;vertical-align: inherit;&quot;&gt;&lt;font style=&quot;vertical-align: inherit;&quot;&gt;BSW6DS_Vendeglatas&lt;/font&gt;&lt;/font&gt;" style="ellipse;whiteSpace=wrap;html=1;align=center;" parent="1" vertex="1">
          <mxGeometry x="1110" y="20" width="130" height="50" as="geometry" />
        </mxCell>
        <mxCell id="Pr3GQYdpATsWxthIxdoF-11" value="" style="endArrow=none;html=1;rounded=0;exitX=0.5;exitY=1;exitDx=0;exitDy=0;entryX=0.5;entryY=0;entryDx=0;entryDy=0;" parent="1" source="Pr3GQYdpATsWxthIxdoF-10" target="Pr3GQYdpATsWxthIxdoF-1" edge="1">
          <mxGeometry relative="1" as="geometry">
            <mxPoint x="1121" y="450" as="sourcePoint" />
            <mxPoint x="1281" y="450" as="targetPoint" />
          </mxGeometry>
        </mxCell>
        <mxCell id="Pr3GQYdpATsWxthIxdoF-12" value="" style="endArrow=none;html=1;rounded=0;entryX=0.5;entryY=0;entryDx=0;entryDy=0;exitX=0.5;exitY=1;exitDx=0;exitDy=0;" parent="1" source="Pr3GQYdpATsWxthIxdoF-10" target="Pr3GQYdpATsWxthIxdoF-2" edge="1">
          <mxGeometry relative="1" as="geometry">
            <mxPoint x="1121" y="450" as="sourcePoint" />
            <mxPoint x="1281" y="450" as="targetPoint" />
          </mxGeometry>
        </mxCell>
        <mxCell id="Pr3GQYdpATsWxthIxdoF-13" value="" style="endArrow=none;html=1;rounded=0;exitX=0.5;exitY=1;exitDx=0;exitDy=0;entryX=0.5;entryY=0;entryDx=0;entryDy=0;" parent="1" source="Pr3GQYdpATsWxthIxdoF-10" target="Pr3GQYdpATsWxthIxdoF-3" edge="1">
          <mxGeometry relative="1" as="geometry">
            <mxPoint x="1121" y="450" as="sourcePoint" />
            <mxPoint x="1281" y="450" as="targetPoint" />
          </mxGeometry>
        </mxCell>
        <mxCell id="Pr3GQYdpATsWxthIxdoF-14" value="" style="endArrow=none;html=1;rounded=0;exitX=0.5;exitY=1;exitDx=0;exitDy=0;entryX=0.5;entryY=0;entryDx=0;entryDy=0;" parent="1" source="Pr3GQYdpATsWxthIxdoF-10" target="Pr3GQYdpATsWxthIxdoF-4" edge="1">
          <mxGeometry relative="1" as="geometry">
            <mxPoint x="1121" y="450" as="sourcePoint" />
            <mxPoint x="1281" y="450" as="targetPoint" />
          </mxGeometry>
        </mxCell>
        <mxCell id="Pr3GQYdpATsWxthIxdoF-15" value="" style="endArrow=none;html=1;rounded=0;exitX=0.5;exitY=1;exitDx=0;exitDy=0;entryX=0.5;entryY=0;entryDx=0;entryDy=0;" parent="1" source="Pr3GQYdpATsWxthIxdoF-10" target="Pr3GQYdpATsWxthIxdoF-5" edge="1">
          <mxGeometry relative="1" as="geometry">
            <mxPoint x="1121" y="450" as="sourcePoint" />
            <mxPoint x="1281" y="450" as="targetPoint" />
          </mxGeometry>
        </mxCell>
        <mxCell id="Pr3GQYdpATsWxthIxdoF-16" value="" style="endArrow=none;html=1;rounded=0;exitX=0.5;exitY=1;exitDx=0;exitDy=0;entryX=0.5;entryY=0;entryDx=0;entryDy=0;" parent="1" source="Pr3GQYdpATsWxthIxdoF-10" target="Pr3GQYdpATsWxthIxdoF-6" edge="1">
          <mxGeometry relative="1" as="geometry">
            <mxPoint x="1121" y="450" as="sourcePoint" />
            <mxPoint x="1281" y="450" as="targetPoint" />
          </mxGeometry>
        </mxCell>
        <mxCell id="Pr3GQYdpATsWxthIxdoF-20" value="&lt;u&gt;Fkod&lt;/u&gt;" style="shape=rhombus;perimeter=rhombusPerimeter;whiteSpace=wrap;html=1;align=center;" parent="1" vertex="1">
          <mxGeometry x="610" y="260" width="70" height="60" as="geometry" />
        </mxCell>
        <mxCell id="Pr3GQYdpATsWxthIxdoF-21" value="&lt;u&gt;Ekod&lt;/u&gt;" style="shape=rhombus;perimeter=rhombusPerimeter;whiteSpace=wrap;html=1;align=center;" parent="1" vertex="1">
          <mxGeometry x="111" y="260" width="70" height="60" as="geometry" />
        </mxCell>
        <mxCell id="Pr3GQYdpATsWxthIxdoF-22" value="E_V_V" style="shape=rhombus;perimeter=rhombusPerimeter;whiteSpace=wrap;html=1;align=center;" parent="1" vertex="1">
          <mxGeometry x="2160" y="270" width="70" height="60" as="geometry" />
        </mxCell>
        <mxCell id="Pr3GQYdpATsWxthIxdoF-23" value="&lt;u&gt;Vkod&lt;/u&gt;" style="shape=rhombus;perimeter=rhombusPerimeter;whiteSpace=wrap;html=1;align=center;" parent="1" vertex="1">
          <mxGeometry x="1710.01" y="260" width="70" height="60" as="geometry" />
        </mxCell>
        <mxCell id="Pr3GQYdpATsWxthIxdoF-24" value="E_GY" style="shape=rhombus;perimeter=rhombusPerimeter;whiteSpace=wrap;html=1;align=center;" parent="1" vertex="1">
          <mxGeometry x="1581" y="260" width="70" height="60" as="geometry" />
        </mxCell>
        <mxCell id="Pr3GQYdpATsWxthIxdoF-25" value="&lt;u&gt;Gykod&lt;/u&gt;" style="shape=rhombus;perimeter=rhombusPerimeter;whiteSpace=wrap;html=1;align=center;" parent="1" vertex="1">
          <mxGeometry x="1331" y="260" width="70" height="60" as="geometry" />
        </mxCell>
        <mxCell id="Pr3GQYdpATsWxthIxdoF-26" value="&lt;u&gt;Szkod&lt;/u&gt;" style="shape=rhombus;perimeter=rhombusPerimeter;whiteSpace=wrap;html=1;align=center;" parent="1" vertex="1">
          <mxGeometry x="985" y="260" width="70" height="60" as="geometry" />
        </mxCell>
        <mxCell id="Pr3GQYdpATsWxthIxdoF-27" value="E_V_E" style="shape=rhombus;perimeter=rhombusPerimeter;whiteSpace=wrap;html=1;align=center;" parent="1" vertex="1">
          <mxGeometry x="2453.75" y="270" width="70" height="60" as="geometry" />
        </mxCell>
        <mxCell id="Pr3GQYdpATsWxthIxdoF-28" value="E_sz" style="shape=rhombus;perimeter=rhombusPerimeter;whiteSpace=wrap;html=1;align=center;" parent="1" vertex="1">
          <mxGeometry x="1210" y="260" width="70" height="60" as="geometry" />
        </mxCell>
        <mxCell id="Pr3GQYdpATsWxthIxdoF-29" value="E_F" style="shape=rhombus;perimeter=rhombusPerimeter;whiteSpace=wrap;html=1;align=center;" parent="1" vertex="1">
          <mxGeometry x="880" y="260" width="70" height="60" as="geometry" />
        </mxCell>
        <mxCell id="Pr3GQYdpATsWxthIxdoF-35" value="Hazszam" style="ellipse;whiteSpace=wrap;html=1;align=center;" parent="1" vertex="1">
          <mxGeometry x="421" y="570" width="100" height="40" as="geometry" />
        </mxCell>
        <mxCell id="Pr3GQYdpATsWxthIxdoF-36" value="Utca" style="ellipse;whiteSpace=wrap;html=1;align=center;" parent="1" vertex="1">
          <mxGeometry x="311" y="570" width="100" height="40" as="geometry" />
        </mxCell>
        <mxCell id="Pr3GQYdpATsWxthIxdoF-37" value="VÃ¡ros" style="ellipse;whiteSpace=wrap;html=1;align=center;" parent="1" vertex="1">
          <mxGeometry x="201" y="570" width="100" height="40" as="geometry" />
        </mxCell>
        <mxCell id="Pr3GQYdpATsWxthIxdoF-38" value="csillag" style="ellipse;whiteSpace=wrap;html=1;align=center;" parent="1" vertex="1">
          <mxGeometry x="461" y="400" width="100" height="40" as="geometry" />
        </mxCell>
        <mxCell id="Pr3GQYdpATsWxthIxdoF-39" value="cim" style="ellipse;whiteSpace=wrap;html=1;align=center;" parent="1" vertex="1">
          <mxGeometry x="311" y="400" width="100" height="40" as="geometry" />
        </mxCell>
        <mxCell id="Pr3GQYdpATsWxthIxdoF-40" value="nev" style="ellipse;whiteSpace=wrap;html=1;align=center;" parent="1" vertex="1">
          <mxGeometry x="151" y="400" width="100" height="40" as="geometry" />
        </mxCell>
        <mxCell id="Pr3GQYdpATsWxthIxdoF-43" value="reszleg" style="ellipse;whiteSpace=wrap;html=1;align=center;fontStyle=0;" parent="1" vertex="1">
          <mxGeometry x="1085" y="400" width="100" height="40" as="geometry" />
        </mxCell>
        <mxCell id="Pr3GQYdpATsWxthIxdoF-44" value="nev" style="ellipse;whiteSpace=wrap;html=1;align=center;fontStyle=0;" parent="1" vertex="1">
          <mxGeometry x="970" y="400" width="100" height="40" as="geometry" />
        </mxCell>
        <mxCell id="Pr3GQYdpATsWxthIxdoF-45" value="vegzettseg" style="ellipse;shape=doubleEllipse;margin=3;whiteSpace=wrap;html=1;align=center;" parent="1" vertex="1">
          <mxGeometry x="1195" y="400" width="100" height="40" as="geometry" />
        </mxCell>
        <mxCell id="Pr3GQYdpATsWxthIxdoF-49" value="" style="endArrow=none;html=1;rounded=0;exitX=0.5;exitY=1;exitDx=0;exitDy=0;entryX=0.5;entryY=0;entryDx=0;entryDy=0;" parent="1" source="Pr3GQYdpATsWxthIxdoF-39" target="Pr3GQYdpATsWxthIxdoF-37" edge="1">
          <mxGeometry relative="1" as="geometry">
            <mxPoint x="1181" y="500" as="sourcePoint" />
            <mxPoint x="1341" y="500" as="targetPoint" />
          </mxGeometry>
        </mxCell>
        <mxCell id="Pr3GQYdpATsWxthIxdoF-50" value="" style="endArrow=none;html=1;rounded=0;exitX=0.5;exitY=1;exitDx=0;exitDy=0;entryX=0.5;entryY=0;entryDx=0;entryDy=0;" parent="1" source="Pr3GQYdpATsWxthIxdoF-39" target="Pr3GQYdpATsWxthIxdoF-35" edge="1">
          <mxGeometry relative="1" as="geometry">
            <mxPoint x="1181" y="500" as="sourcePoint" />
            <mxPoint x="1341" y="500" as="targetPoint" />
          </mxGeometry>
        </mxCell>
        <mxCell id="Pr3GQYdpATsWxthIxdoF-51" value="" style="endArrow=none;html=1;rounded=0;exitX=0.5;exitY=1;exitDx=0;exitDy=0;entryX=0.5;entryY=0;entryDx=0;entryDy=0;" parent="1" source="Pr3GQYdpATsWxthIxdoF-39" target="Pr3GQYdpATsWxthIxdoF-36" edge="1">
          <mxGeometry relative="1" as="geometry">
            <mxPoint x="1181" y="500" as="sourcePoint" />
            <mxPoint x="1341" y="500" as="targetPoint" />
          </mxGeometry>
        </mxCell>
        <mxCell id="Pr3GQYdpATsWxthIxdoF-52" value="" style="endArrow=none;html=1;rounded=0;exitX=0.5;exitY=1;exitDx=0;exitDy=0;entryX=0.5;entryY=0;entryDx=0;entryDy=0;" parent="1" source="Pr3GQYdpATsWxthIxdoF-6" target="Pr3GQYdpATsWxthIxdoF-38" edge="1">
          <mxGeometry relative="1" as="geometry">
            <mxPoint x="1181" y="500" as="sourcePoint" />
            <mxPoint x="1341" y="500" as="targetPoint" />
          </mxGeometry>
        </mxCell>
        <mxCell id="Pr3GQYdpATsWxthIxdoF-53" value="" style="endArrow=none;html=1;rounded=0;exitX=0.5;exitY=1;exitDx=0;exitDy=0;entryX=0.5;entryY=0;entryDx=0;entryDy=0;" parent="1" source="Pr3GQYdpATsWxthIxdoF-6" target="Pr3GQYdpATsWxthIxdoF-39" edge="1">
          <mxGeometry relative="1" as="geometry">
            <mxPoint x="1181" y="500" as="sourcePoint" />
            <mxPoint x="1341" y="500" as="targetPoint" />
          </mxGeometry>
        </mxCell>
        <mxCell id="Pr3GQYdpATsWxthIxdoF-54" value="" style="endArrow=none;html=1;rounded=0;exitX=0.5;exitY=1;exitDx=0;exitDy=0;entryX=0.5;entryY=0;entryDx=0;entryDy=0;" parent="1" source="Pr3GQYdpATsWxthIxdoF-6" target="Pr3GQYdpATsWxthIxdoF-40" edge="1">
          <mxGeometry relative="1" as="geometry">
            <mxPoint x="1181" y="500" as="sourcePoint" />
            <mxPoint x="1341" y="500" as="targetPoint" />
          </mxGeometry>
        </mxCell>
        <mxCell id="Pr3GQYdpATsWxthIxdoF-60" value="" style="whiteSpace=wrap;html=1;align=center;rotation=90;" parent="1" vertex="1">
          <mxGeometry x="234.62" y="630" width="32.75" height="25.12" as="geometry" />
        </mxCell>
        <mxCell id="Pr3GQYdpATsWxthIxdoF-62" value="" style="endArrow=none;html=1;rounded=0;exitX=0.5;exitY=1;exitDx=0;exitDy=0;entryX=0;entryY=0.5;entryDx=0;entryDy=0;" parent="1" source="Pr3GQYdpATsWxthIxdoF-37" target="Pr3GQYdpATsWxthIxdoF-60" edge="1">
          <mxGeometry relative="1" as="geometry">
            <mxPoint x="781" y="500" as="sourcePoint" />
            <mxPoint x="941" y="500" as="targetPoint" />
          </mxGeometry>
        </mxCell>
        <mxCell id="Pr3GQYdpATsWxthIxdoF-67" value="nev" style="ellipse;whiteSpace=wrap;html=1;align=center;" parent="1" vertex="1">
          <mxGeometry x="610" y="400" width="100" height="40" as="geometry" />
        </mxCell>
        <mxCell id="Pr3GQYdpATsWxthIxdoF-68" value="eletkor" style="ellipse;whiteSpace=wrap;html=1;align=center;" parent="1" vertex="1">
          <mxGeometry x="730" y="400" width="100" height="40" as="geometry" />
        </mxCell>
        <mxCell id="Pr3GQYdpATsWxthIxdoF-69" value="vegzettseg" style="ellipse;shape=doubleEllipse;margin=3;whiteSpace=wrap;html=1;align=center;" parent="1" vertex="1">
          <mxGeometry x="841.56" y="400" width="100" height="40" as="geometry" />
        </mxCell>
        <mxCell id="Pr3GQYdpATsWxthIxdoF-75" value="" style="endArrow=none;html=1;rounded=0;exitX=0.5;exitY=1;exitDx=0;exitDy=0;entryX=0.5;entryY=0;entryDx=0;entryDy=0;" parent="1" source="Pr3GQYdpATsWxthIxdoF-5" target="Pr3GQYdpATsWxthIxdoF-69" edge="1">
          <mxGeometry relative="1" as="geometry">
            <mxPoint x="790" y="500" as="sourcePoint" />
            <mxPoint x="950" y="500" as="targetPoint" />
          </mxGeometry>
        </mxCell>
        <mxCell id="Pr3GQYdpATsWxthIxdoF-76" value="" style="endArrow=none;html=1;rounded=0;exitX=0.5;exitY=0;exitDx=0;exitDy=0;entryX=0.5;entryY=1;entryDx=0;entryDy=0;" parent="1" source="Pr3GQYdpATsWxthIxdoF-68" target="Pr3GQYdpATsWxthIxdoF-5" edge="1">
          <mxGeometry relative="1" as="geometry">
            <mxPoint x="790" y="500" as="sourcePoint" />
            <mxPoint x="950" y="500" as="targetPoint" />
          </mxGeometry>
        </mxCell>
        <mxCell id="Pr3GQYdpATsWxthIxdoF-77" value="" style="endArrow=none;html=1;rounded=0;exitX=0.5;exitY=1;exitDx=0;exitDy=0;entryX=0.5;entryY=0;entryDx=0;entryDy=0;" parent="1" source="Pr3GQYdpATsWxthIxdoF-5" target="Pr3GQYdpATsWxthIxdoF-67" edge="1">
          <mxGeometry relative="1" as="geometry">
            <mxPoint x="790" y="500" as="sourcePoint" />
            <mxPoint x="950" y="500" as="targetPoint" />
          </mxGeometry>
        </mxCell>
        <mxCell id="Pr3GQYdpATsWxthIxdoF-78" value="" style="endArrow=none;html=1;rounded=0;exitX=1;exitY=0.5;exitDx=0;exitDy=0;entryX=0;entryY=0.5;entryDx=0;entryDy=0;" parent="1" source="Pr3GQYdpATsWxthIxdoF-20" target="Pr3GQYdpATsWxthIxdoF-5" edge="1">
          <mxGeometry relative="1" as="geometry">
            <mxPoint x="790" y="500" as="sourcePoint" />
            <mxPoint x="950" y="500" as="targetPoint" />
          </mxGeometry>
        </mxCell>
        <mxCell id="Pr3GQYdpATsWxthIxdoF-79" value="" style="endArrow=none;html=1;rounded=0;entryX=0;entryY=0.5;entryDx=0;entryDy=0;exitX=1;exitY=0.5;exitDx=0;exitDy=0;" parent="1" source="Pr3GQYdpATsWxthIxdoF-5" target="Pr3GQYdpATsWxthIxdoF-29" edge="1">
          <mxGeometry relative="1" as="geometry">
            <mxPoint x="790" y="500" as="sourcePoint" />
            <mxPoint x="950" y="500" as="targetPoint" />
          </mxGeometry>
        </mxCell>
        <mxCell id="Pr3GQYdpATsWxthIxdoF-80" value="" style="endArrow=none;html=1;rounded=0;exitX=1;exitY=0.5;exitDx=0;exitDy=0;entryX=0;entryY=0.5;entryDx=0;entryDy=0;" parent="1" source="Pr3GQYdpATsWxthIxdoF-21" target="Pr3GQYdpATsWxthIxdoF-6" edge="1">
          <mxGeometry relative="1" as="geometry">
            <mxPoint x="781" y="500" as="sourcePoint" />
            <mxPoint x="941" y="500" as="targetPoint" />
          </mxGeometry>
        </mxCell>
        <mxCell id="Pr3GQYdpATsWxthIxdoF-92" value="" style="endArrow=none;html=1;rounded=0;entryX=0;entryY=0.5;entryDx=0;entryDy=0;exitX=1;exitY=0.5;exitDx=0;exitDy=0;" parent="1" source="Pr3GQYdpATsWxthIxdoF-4" target="Pr3GQYdpATsWxthIxdoF-28" edge="1">
          <mxGeometry relative="1" as="geometry">
            <mxPoint x="825" y="500" as="sourcePoint" />
            <mxPoint x="985" y="500" as="targetPoint" />
          </mxGeometry>
        </mxCell>
        <mxCell id="Pr3GQYdpATsWxthIxdoF-93" value="" style="endArrow=none;html=1;rounded=0;entryX=0.5;entryY=1;entryDx=0;entryDy=0;exitX=0.5;exitY=0;exitDx=0;exitDy=0;" parent="1" source="Pr3GQYdpATsWxthIxdoF-45" target="Pr3GQYdpATsWxthIxdoF-4" edge="1">
          <mxGeometry relative="1" as="geometry">
            <mxPoint x="825" y="500" as="sourcePoint" />
            <mxPoint x="985" y="500" as="targetPoint" />
          </mxGeometry>
        </mxCell>
        <mxCell id="Pr3GQYdpATsWxthIxdoF-94" value="" style="endArrow=none;html=1;rounded=0;entryX=0.5;entryY=1;entryDx=0;entryDy=0;exitX=0.5;exitY=0;exitDx=0;exitDy=0;" parent="1" source="Pr3GQYdpATsWxthIxdoF-43" target="Pr3GQYdpATsWxthIxdoF-4" edge="1">
          <mxGeometry relative="1" as="geometry">
            <mxPoint x="825" y="500" as="sourcePoint" />
            <mxPoint x="985" y="500" as="targetPoint" />
          </mxGeometry>
        </mxCell>
        <mxCell id="Pr3GQYdpATsWxthIxdoF-95" value="" style="endArrow=none;html=1;rounded=0;entryX=0.5;entryY=1;entryDx=0;entryDy=0;exitX=0.5;exitY=0;exitDx=0;exitDy=0;" parent="1" source="Pr3GQYdpATsWxthIxdoF-44" target="Pr3GQYdpATsWxthIxdoF-4" edge="1">
          <mxGeometry relative="1" as="geometry">
            <mxPoint x="825" y="500" as="sourcePoint" />
            <mxPoint x="985" y="500" as="targetPoint" />
          </mxGeometry>
        </mxCell>
        <mxCell id="Pr3GQYdpATsWxthIxdoF-96" value="" style="endArrow=none;html=1;rounded=0;entryX=0;entryY=0.5;entryDx=0;entryDy=0;exitX=1;exitY=0.5;exitDx=0;exitDy=0;" parent="1" source="Pr3GQYdpATsWxthIxdoF-26" target="Pr3GQYdpATsWxthIxdoF-4" edge="1">
          <mxGeometry relative="1" as="geometry">
            <mxPoint x="825" y="500" as="sourcePoint" />
            <mxPoint x="985" y="500" as="targetPoint" />
          </mxGeometry>
        </mxCell>
        <mxCell id="Pr3GQYdpATsWxthIxdoF-106" value="idotartama" style="ellipse;whiteSpace=wrap;html=1;align=center;" parent="1" vertex="1">
          <mxGeometry x="1500" y="510" width="100" height="40" as="geometry" />
        </mxCell>
        <mxCell id="Pr3GQYdpATsWxthIxdoF-107" value="kezdete" style="ellipse;whiteSpace=wrap;html=1;align=center;" parent="1" vertex="1">
          <mxGeometry x="1380" y="510" width="100" height="40" as="geometry" />
        </mxCell>
        <mxCell id="Pr3GQYdpATsWxthIxdoF-108" value="gyakorlat" style="ellipse;whiteSpace=wrap;html=1;align=center;" parent="1" vertex="1">
          <mxGeometry x="1441" y="400" width="100" height="40" as="geometry" />
        </mxCell>
        <mxCell id="Pr3GQYdpATsWxthIxdoF-109" value="nev" style="ellipse;whiteSpace=wrap;html=1;align=center;" parent="1" vertex="1">
          <mxGeometry x="1320" y="400" width="100" height="40" as="geometry" />
        </mxCell>
        <mxCell id="Pr3GQYdpATsWxthIxdoF-110" value="muszak" style="ellipse;shape=doubleEllipse;margin=3;whiteSpace=wrap;html=1;align=center;" parent="1" vertex="1">
          <mxGeometry x="1551" y="400" width="100" height="40" as="geometry" />
        </mxCell>
        <mxCell id="Pr3GQYdpATsWxthIxdoF-121" value="" style="endArrow=none;html=1;rounded=0;entryX=0.5;entryY=1;entryDx=0;entryDy=0;exitX=0.5;exitY=0;exitDx=0;exitDy=0;" parent="1" source="Pr3GQYdpATsWxthIxdoF-107" target="Pr3GQYdpATsWxthIxdoF-108" edge="1">
          <mxGeometry relative="1" as="geometry">
            <mxPoint x="1021" y="550" as="sourcePoint" />
            <mxPoint x="1181" y="550" as="targetPoint" />
          </mxGeometry>
        </mxCell>
        <mxCell id="Pr3GQYdpATsWxthIxdoF-122" value="" style="endArrow=none;html=1;rounded=0;entryX=0.5;entryY=1;entryDx=0;entryDy=0;exitX=0.5;exitY=0;exitDx=0;exitDy=0;" parent="1" source="Pr3GQYdpATsWxthIxdoF-108" target="Pr3GQYdpATsWxthIxdoF-3" edge="1">
          <mxGeometry relative="1" as="geometry">
            <mxPoint x="1021" y="550" as="sourcePoint" />
            <mxPoint x="1181" y="550" as="targetPoint" />
          </mxGeometry>
        </mxCell>
        <mxCell id="Pr3GQYdpATsWxthIxdoF-123" value="" style="endArrow=none;html=1;rounded=0;entryX=0.5;entryY=1;entryDx=0;entryDy=0;exitX=0.5;exitY=0;exitDx=0;exitDy=0;" parent="1" source="Pr3GQYdpATsWxthIxdoF-110" target="Pr3GQYdpATsWxthIxdoF-3" edge="1">
          <mxGeometry relative="1" as="geometry">
            <mxPoint x="1021" y="550" as="sourcePoint" />
            <mxPoint x="1181" y="550" as="targetPoint" />
          </mxGeometry>
        </mxCell>
        <mxCell id="Pr3GQYdpATsWxthIxdoF-124" value="" style="endArrow=none;html=1;rounded=0;entryX=0.5;entryY=1;entryDx=0;entryDy=0;exitX=0.5;exitY=0;exitDx=0;exitDy=0;" parent="1" source="Pr3GQYdpATsWxthIxdoF-109" target="Pr3GQYdpATsWxthIxdoF-3" edge="1">
          <mxGeometry relative="1" as="geometry">
            <mxPoint x="1021" y="550" as="sourcePoint" />
            <mxPoint x="1181" y="550" as="targetPoint" />
          </mxGeometry>
        </mxCell>
        <mxCell id="Pr3GQYdpATsWxthIxdoF-125" value="" style="endArrow=none;html=1;rounded=0;entryX=0;entryY=0.5;entryDx=0;entryDy=0;exitX=1;exitY=0.5;exitDx=0;exitDy=0;" parent="1" source="Pr3GQYdpATsWxthIxdoF-3" target="Pr3GQYdpATsWxthIxdoF-24" edge="1">
          <mxGeometry relative="1" as="geometry">
            <mxPoint x="1021" y="550" as="sourcePoint" />
            <mxPoint x="1181" y="550" as="targetPoint" />
          </mxGeometry>
        </mxCell>
        <mxCell id="Pr3GQYdpATsWxthIxdoF-126" value="" style="endArrow=none;html=1;rounded=0;entryX=0;entryY=0.5;entryDx=0;entryDy=0;exitX=1;exitY=0.5;exitDx=0;exitDy=0;" parent="1" source="Pr3GQYdpATsWxthIxdoF-25" target="Pr3GQYdpATsWxthIxdoF-3" edge="1">
          <mxGeometry relative="1" as="geometry">
            <mxPoint x="1021" y="550" as="sourcePoint" />
            <mxPoint x="1181" y="550" as="targetPoint" />
          </mxGeometry>
        </mxCell>
        <mxCell id="Pr3GQYdpATsWxthIxdoF-131" value="" style="endArrow=none;html=1;rounded=0;entryX=0.5;entryY=1;entryDx=0;entryDy=0;exitX=0.5;exitY=0;exitDx=0;exitDy=0;" parent="1" source="Pr3GQYdpATsWxthIxdoF-106" target="Pr3GQYdpATsWxthIxdoF-108" edge="1">
          <mxGeometry relative="1" as="geometry">
            <mxPoint x="1021" y="550" as="sourcePoint" />
            <mxPoint x="1181" y="550" as="targetPoint" />
          </mxGeometry>
        </mxCell>
        <mxCell id="Pr3GQYdpATsWxthIxdoF-134" value="etel" style="ellipse;whiteSpace=wrap;html=1;align=center;" parent="1" vertex="1">
          <mxGeometry x="2390" y="400" width="100" height="40" as="geometry" />
        </mxCell>
        <mxCell id="Pr3GQYdpATsWxthIxdoF-135" value="osszeg" style="ellipse;whiteSpace=wrap;html=1;align=center;" parent="1" vertex="1">
          <mxGeometry x="2220" y="400" width="100" height="40" as="geometry" />
        </mxCell>
        <mxCell id="Pr3GQYdpATsWxthIxdoF-136" value="hazszam" style="ellipse;whiteSpace=wrap;html=1;align=center;" parent="1" vertex="1">
          <mxGeometry x="2086.38" y="510" width="100" height="40" as="geometry" />
        </mxCell>
        <mxCell id="Pr3GQYdpATsWxthIxdoF-137" value="utca" style="ellipse;whiteSpace=wrap;html=1;align=center;" parent="1" vertex="1">
          <mxGeometry x="1970.0000000000002" y="510" width="100" height="40" as="geometry" />
        </mxCell>
        <mxCell id="Pr3GQYdpATsWxthIxdoF-138" value="varos" style="ellipse;whiteSpace=wrap;html=1;align=center;" parent="1" vertex="1">
          <mxGeometry x="1846.38" y="510" width="100" height="40" as="geometry" />
        </mxCell>
        <mxCell id="Pr3GQYdpATsWxthIxdoF-139" value="eletkor" style="ellipse;whiteSpace=wrap;html=1;align=center;" parent="1" vertex="1">
          <mxGeometry x="1833.63" y="400" width="100" height="40" as="geometry" />
        </mxCell>
        <mxCell id="Pr3GQYdpATsWxthIxdoF-140" value="cim" style="ellipse;whiteSpace=wrap;html=1;align=center;" parent="1" vertex="1">
          <mxGeometry x="1970" y="400" width="100" height="40" as="geometry" />
        </mxCell>
        <mxCell id="Pr3GQYdpATsWxthIxdoF-141" value="nev" style="ellipse;whiteSpace=wrap;html=1;align=center;" parent="1" vertex="1">
          <mxGeometry x="1713.63" y="397.5" width="100" height="40" as="geometry" />
        </mxCell>
        <mxCell id="Pr3GQYdpATsWxthIxdoF-144" value="" style="endArrow=none;html=1;rounded=0;entryX=0.5;entryY=1;entryDx=0;entryDy=0;exitX=0.5;exitY=0;exitDx=0;exitDy=0;" parent="1" source="Pr3GQYdpATsWxthIxdoF-134" target="Pr3GQYdpATsWxthIxdoF-1" edge="1">
          <mxGeometry relative="1" as="geometry">
            <mxPoint x="1461" y="560" as="sourcePoint" />
            <mxPoint x="1621" y="560" as="targetPoint" />
          </mxGeometry>
        </mxCell>
        <mxCell id="Pr3GQYdpATsWxthIxdoF-145" value="" style="endArrow=none;html=1;rounded=0;entryX=0.5;entryY=1;entryDx=0;entryDy=0;exitX=0.5;exitY=0;exitDx=0;exitDy=0;" parent="1" source="Pr3GQYdpATsWxthIxdoF-135" target="Pr3GQYdpATsWxthIxdoF-1" edge="1">
          <mxGeometry relative="1" as="geometry">
            <mxPoint x="1600" y="560" as="sourcePoint" />
            <mxPoint x="1760" y="560" as="targetPoint" />
          </mxGeometry>
        </mxCell>
        <mxCell id="Pr3GQYdpATsWxthIxdoF-146" value="" style="endArrow=none;html=1;rounded=0;entryX=0.5;entryY=1;entryDx=0;entryDy=0;exitX=0.5;exitY=0;exitDx=0;exitDy=0;" parent="1" source="Pr3GQYdpATsWxthIxdoF-137" target="Pr3GQYdpATsWxthIxdoF-140" edge="1">
          <mxGeometry relative="1" as="geometry">
            <mxPoint x="1351" y="550" as="sourcePoint" />
            <mxPoint x="1511" y="550" as="targetPoint" />
          </mxGeometry>
        </mxCell>
        <mxCell id="Pr3GQYdpATsWxthIxdoF-147" value="" style="endArrow=none;html=1;rounded=0;entryX=0.5;entryY=1;entryDx=0;entryDy=0;exitX=0.5;exitY=0;exitDx=0;exitDy=0;" parent="1" source="Pr3GQYdpATsWxthIxdoF-136" target="Pr3GQYdpATsWxthIxdoF-140" edge="1">
          <mxGeometry relative="1" as="geometry">
            <mxPoint x="1351" y="550" as="sourcePoint" />
            <mxPoint x="1511" y="550" as="targetPoint" />
          </mxGeometry>
        </mxCell>
        <mxCell id="Pr3GQYdpATsWxthIxdoF-149" value="" style="endArrow=none;html=1;rounded=0;entryX=0.5;entryY=1;entryDx=0;entryDy=0;exitX=0.5;exitY=0;exitDx=0;exitDy=0;" parent="1" source="Pr3GQYdpATsWxthIxdoF-139" target="Pr3GQYdpATsWxthIxdoF-2" edge="1">
          <mxGeometry relative="1" as="geometry">
            <mxPoint x="1351" y="550" as="sourcePoint" />
            <mxPoint x="1511" y="550" as="targetPoint" />
          </mxGeometry>
        </mxCell>
        <mxCell id="Pr3GQYdpATsWxthIxdoF-150" value="" style="endArrow=none;html=1;rounded=0;exitX=0.5;exitY=0;exitDx=0;exitDy=0;entryX=0.5;entryY=1;entryDx=0;entryDy=0;" parent="1" source="Pr3GQYdpATsWxthIxdoF-140" target="Pr3GQYdpATsWxthIxdoF-2" edge="1">
          <mxGeometry relative="1" as="geometry">
            <mxPoint x="1351" y="550" as="sourcePoint" />
            <mxPoint x="1990" y="550" as="targetPoint" />
          </mxGeometry>
        </mxCell>
        <mxCell id="Pr3GQYdpATsWxthIxdoF-151" value="" style="endArrow=none;html=1;rounded=0;entryX=0.5;entryY=1;entryDx=0;entryDy=0;exitX=0.5;exitY=0;exitDx=0;exitDy=0;" parent="1" source="Pr3GQYdpATsWxthIxdoF-141" target="Pr3GQYdpATsWxthIxdoF-2" edge="1">
          <mxGeometry relative="1" as="geometry">
            <mxPoint x="1351" y="550" as="sourcePoint" />
            <mxPoint x="1511" y="550" as="targetPoint" />
          </mxGeometry>
        </mxCell>
        <mxCell id="Pr3GQYdpATsWxthIxdoF-152" value="" style="endArrow=none;html=1;rounded=0;entryX=0;entryY=0.5;entryDx=0;entryDy=0;exitX=1;exitY=0.5;exitDx=0;exitDy=0;" parent="1" source="Pr3GQYdpATsWxthIxdoF-23" target="Pr3GQYdpATsWxthIxdoF-2" edge="1">
          <mxGeometry relative="1" as="geometry">
            <mxPoint x="1351" y="550" as="sourcePoint" />
            <mxPoint x="1511" y="550" as="targetPoint" />
          </mxGeometry>
        </mxCell>
        <mxCell id="Pr3GQYdpATsWxthIxdoF-153" value="" style="endArrow=none;html=1;rounded=0;entryX=0;entryY=0.5;entryDx=0;entryDy=0;exitX=1;exitY=0.5;exitDx=0;exitDy=0;" parent="1" source="Pr3GQYdpATsWxthIxdoF-22" target="Pr3GQYdpATsWxthIxdoF-1" edge="1">
          <mxGeometry relative="1" as="geometry">
            <mxPoint x="1600" y="560" as="sourcePoint" />
            <mxPoint x="1760" y="560" as="targetPoint" />
          </mxGeometry>
        </mxCell>
        <mxCell id="Pr3GQYdpATsWxthIxdoF-154" value="" style="endArrow=none;html=1;rounded=0;entryX=0;entryY=0.5;entryDx=0;entryDy=0;exitX=1;exitY=0.5;exitDx=0;exitDy=0;" parent="1" source="Pr3GQYdpATsWxthIxdoF-1" target="Pr3GQYdpATsWxthIxdoF-27" edge="1">
          <mxGeometry relative="1" as="geometry">
            <mxPoint x="1600" y="560" as="sourcePoint" />
            <mxPoint x="1760" y="560" as="targetPoint" />
          </mxGeometry>
        </mxCell>
        <mxCell id="0GYotIsLfdEvZDWinw6n-1" value="" style="whiteSpace=wrap;html=1;align=center;rotation=90;" vertex="1" parent="1">
          <mxGeometry x="344.62500000000006" y="630" width="32.75" height="25.12" as="geometry" />
        </mxCell>
        <mxCell id="0GYotIsLfdEvZDWinw6n-2" value="" style="endArrow=none;html=1;rounded=0;exitX=0.5;exitY=1;exitDx=0;exitDy=0;entryX=0;entryY=0.5;entryDx=0;entryDy=0;" edge="1" parent="1" target="0GYotIsLfdEvZDWinw6n-1" source="Pr3GQYdpATsWxthIxdoF-36">
          <mxGeometry relative="1" as="geometry">
            <mxPoint x="382.56500000000005" y="680" as="sourcePoint" />
            <mxPoint x="1072.565" y="570" as="targetPoint" />
          </mxGeometry>
        </mxCell>
        <mxCell id="0GYotIsLfdEvZDWinw6n-3" value="" style="whiteSpace=wrap;html=1;align=center;rotation=90;" vertex="1" parent="1">
          <mxGeometry x="454.62500000000006" y="630" width="32.75" height="25.12" as="geometry" />
        </mxCell>
        <mxCell id="0GYotIsLfdEvZDWinw6n-4" value="" style="endArrow=none;html=1;rounded=0;exitX=0.5;exitY=1;exitDx=0;exitDy=0;entryX=0;entryY=0.5;entryDx=0;entryDy=0;" edge="1" parent="1" target="0GYotIsLfdEvZDWinw6n-3" source="Pr3GQYdpATsWxthIxdoF-35">
          <mxGeometry relative="1" as="geometry">
            <mxPoint x="492.56500000000005" y="640" as="sourcePoint" />
            <mxPoint x="1182.565" y="530" as="targetPoint" />
          </mxGeometry>
        </mxCell>
        <mxCell id="0GYotIsLfdEvZDWinw6n-5" value="" style="whiteSpace=wrap;html=1;align=center;rotation=90;" vertex="1" parent="1">
          <mxGeometry x="494.62500000000006" y="462.5" width="32.75" height="25.12" as="geometry" />
        </mxCell>
        <mxCell id="0GYotIsLfdEvZDWinw6n-6" value="" style="endArrow=none;html=1;rounded=0;exitX=0.5;exitY=1;exitDx=0;exitDy=0;entryX=0;entryY=0.5;entryDx=0;entryDy=0;" edge="1" parent="1" target="0GYotIsLfdEvZDWinw6n-5" source="Pr3GQYdpATsWxthIxdoF-38">
          <mxGeometry relative="1" as="geometry">
            <mxPoint x="522.565" y="480" as="sourcePoint" />
            <mxPoint x="1212.565" y="370" as="targetPoint" />
          </mxGeometry>
        </mxCell>
        <mxCell id="0GYotIsLfdEvZDWinw6n-7" value="" style="whiteSpace=wrap;html=1;align=center;rotation=90;" vertex="1" parent="1">
          <mxGeometry x="184.62500000000006" y="462.5" width="32.75" height="25.12" as="geometry" />
        </mxCell>
        <mxCell id="0GYotIsLfdEvZDWinw6n-8" value="" style="endArrow=none;html=1;rounded=0;exitX=0.5;exitY=1;exitDx=0;exitDy=0;entryX=0;entryY=0.5;entryDx=0;entryDy=0;" edge="1" parent="1" target="0GYotIsLfdEvZDWinw6n-7" source="Pr3GQYdpATsWxthIxdoF-40">
          <mxGeometry relative="1" as="geometry">
            <mxPoint x="202.56500000000005" y="480" as="sourcePoint" />
            <mxPoint x="892.565" y="370" as="targetPoint" />
          </mxGeometry>
        </mxCell>
        <mxCell id="0GYotIsLfdEvZDWinw6n-9" value="" style="whiteSpace=wrap;html=1;align=center;rotation=90;" vertex="1" parent="1">
          <mxGeometry x="643.625" y="462.5" width="32.75" height="25.12" as="geometry" />
        </mxCell>
        <mxCell id="0GYotIsLfdEvZDWinw6n-10" value="" style="endArrow=none;html=1;rounded=0;exitX=0.5;exitY=1;exitDx=0;exitDy=0;entryX=0;entryY=0.5;entryDx=0;entryDy=0;" edge="1" parent="1" target="0GYotIsLfdEvZDWinw6n-9" source="Pr3GQYdpATsWxthIxdoF-67">
          <mxGeometry relative="1" as="geometry">
            <mxPoint x="681.56" y="470" as="sourcePoint" />
            <mxPoint x="1383.125" y="400" as="targetPoint" />
          </mxGeometry>
        </mxCell>
        <mxCell id="0GYotIsLfdEvZDWinw6n-11" value="" style="whiteSpace=wrap;html=1;align=center;rotation=90;" vertex="1" parent="1">
          <mxGeometry x="763.625" y="462.5" width="32.75" height="25.12" as="geometry" />
        </mxCell>
        <mxCell id="0GYotIsLfdEvZDWinw6n-12" value="" style="endArrow=none;html=1;rounded=0;exitX=0.5;exitY=1;exitDx=0;exitDy=0;entryX=0;entryY=0.5;entryDx=0;entryDy=0;" edge="1" parent="1" target="0GYotIsLfdEvZDWinw6n-11" source="Pr3GQYdpATsWxthIxdoF-68">
          <mxGeometry relative="1" as="geometry">
            <mxPoint x="781.56" y="470" as="sourcePoint" />
            <mxPoint x="1483.125" y="400" as="targetPoint" />
          </mxGeometry>
        </mxCell>
        <mxCell id="0GYotIsLfdEvZDWinw6n-13" value="" style="whiteSpace=wrap;html=1;align=center;rotation=90;" vertex="1" parent="1">
          <mxGeometry x="875.185" y="462.5" width="32.75" height="25.12" as="geometry" />
        </mxCell>
        <mxCell id="0GYotIsLfdEvZDWinw6n-14" value="" style="endArrow=none;html=1;rounded=0;exitX=0.5;exitY=1;exitDx=0;exitDy=0;entryX=0;entryY=0.5;entryDx=0;entryDy=0;" edge="1" parent="1" target="0GYotIsLfdEvZDWinw6n-13" source="Pr3GQYdpATsWxthIxdoF-69">
          <mxGeometry relative="1" as="geometry">
            <mxPoint x="891.56" y="490" as="sourcePoint" />
            <mxPoint x="1593.125" y="420" as="targetPoint" />
          </mxGeometry>
        </mxCell>
        <mxCell id="0GYotIsLfdEvZDWinw6n-15" value="" style="whiteSpace=wrap;html=1;align=center;rotation=90;" vertex="1" parent="1">
          <mxGeometry x="1118.625" y="462.5" width="32.75" height="25.12" as="geometry" />
        </mxCell>
        <mxCell id="0GYotIsLfdEvZDWinw6n-16" value="" style="endArrow=none;html=1;rounded=0;exitX=0.5;exitY=1;exitDx=0;exitDy=0;entryX=0;entryY=0.5;entryDx=0;entryDy=0;" edge="1" parent="1" target="0GYotIsLfdEvZDWinw6n-15" source="Pr3GQYdpATsWxthIxdoF-43">
          <mxGeometry relative="1" as="geometry">
            <mxPoint x="1107" y="480" as="sourcePoint" />
            <mxPoint x="1808.125" y="460" as="targetPoint" />
          </mxGeometry>
        </mxCell>
        <mxCell id="0GYotIsLfdEvZDWinw6n-17" value="" style="whiteSpace=wrap;html=1;align=center;rotation=90;" vertex="1" parent="1">
          <mxGeometry x="1228.625" y="462.5" width="32.75" height="25.12" as="geometry" />
        </mxCell>
        <mxCell id="0GYotIsLfdEvZDWinw6n-18" value="" style="endArrow=none;html=1;rounded=0;entryX=0;entryY=0.5;entryDx=0;entryDy=0;exitX=0.5;exitY=1;exitDx=0;exitDy=0;" edge="1" parent="1" target="0GYotIsLfdEvZDWinw6n-17" source="Pr3GQYdpATsWxthIxdoF-45">
          <mxGeometry relative="1" as="geometry">
            <mxPoint x="1227" y="480" as="sourcePoint" />
            <mxPoint x="1928.125" y="460" as="targetPoint" />
          </mxGeometry>
        </mxCell>
        <mxCell id="0GYotIsLfdEvZDWinw6n-19" value="" style="whiteSpace=wrap;html=1;align=center;rotation=90;" vertex="1" parent="1">
          <mxGeometry x="1003.6250000000001" y="462.5" width="32.75" height="25.12" as="geometry" />
        </mxCell>
        <mxCell id="0GYotIsLfdEvZDWinw6n-20" value="" style="endArrow=none;html=1;rounded=0;exitX=0.5;exitY=1;exitDx=0;exitDy=0;entryX=0;entryY=0.5;entryDx=0;entryDy=0;" edge="1" parent="1" target="0GYotIsLfdEvZDWinw6n-19" source="Pr3GQYdpATsWxthIxdoF-44">
          <mxGeometry relative="1" as="geometry">
            <mxPoint x="1037" y="470" as="sourcePoint" />
            <mxPoint x="1738.125" y="450" as="targetPoint" />
          </mxGeometry>
        </mxCell>
        <mxCell id="0GYotIsLfdEvZDWinw6n-21" value="" style="whiteSpace=wrap;html=1;align=center;rotation=90;" vertex="1" parent="1">
          <mxGeometry x="1413.625" y="570" width="32.75" height="25.12" as="geometry" />
        </mxCell>
        <mxCell id="0GYotIsLfdEvZDWinw6n-22" value="" style="endArrow=none;html=1;rounded=0;entryX=0;entryY=0.5;entryDx=0;entryDy=0;exitX=0.5;exitY=1;exitDx=0;exitDy=0;" edge="1" parent="1" target="0GYotIsLfdEvZDWinw6n-21" source="Pr3GQYdpATsWxthIxdoF-107">
          <mxGeometry relative="1" as="geometry">
            <mxPoint x="1430" y="562.38" as="sourcePoint" />
            <mxPoint x="2113.125" y="582.38" as="targetPoint" />
          </mxGeometry>
        </mxCell>
        <mxCell id="0GYotIsLfdEvZDWinw6n-23" value="" style="whiteSpace=wrap;html=1;align=center;rotation=90;" vertex="1" parent="1">
          <mxGeometry x="1353.625" y="462.5" width="32.75" height="25.12" as="geometry" />
        </mxCell>
        <mxCell id="0GYotIsLfdEvZDWinw6n-24" value="" style="endArrow=none;html=1;rounded=0;entryX=0;entryY=0.5;entryDx=0;entryDy=0;exitX=0.5;exitY=1;exitDx=0;exitDy=0;" edge="1" parent="1" target="0GYotIsLfdEvZDWinw6n-23" source="Pr3GQYdpATsWxthIxdoF-109">
          <mxGeometry relative="1" as="geometry">
            <mxPoint x="1352.56" y="480" as="sourcePoint" />
            <mxPoint x="2035.685" y="500" as="targetPoint" />
          </mxGeometry>
        </mxCell>
        <mxCell id="0GYotIsLfdEvZDWinw6n-25" value="" style="whiteSpace=wrap;html=1;align=center;rotation=90;" vertex="1" parent="1">
          <mxGeometry x="1533.625" y="572.38" width="32.75" height="25.12" as="geometry" />
        </mxCell>
        <mxCell id="0GYotIsLfdEvZDWinw6n-26" value="" style="endArrow=none;html=1;rounded=0;entryX=0;entryY=0.5;entryDx=0;entryDy=0;exitX=0.5;exitY=1;exitDx=0;exitDy=0;" edge="1" parent="1" target="0GYotIsLfdEvZDWinw6n-25" source="Pr3GQYdpATsWxthIxdoF-106">
          <mxGeometry relative="1" as="geometry">
            <mxPoint x="1550" y="560" as="sourcePoint" />
            <mxPoint x="2255.685" y="590" as="targetPoint" />
          </mxGeometry>
        </mxCell>
        <mxCell id="0GYotIsLfdEvZDWinw6n-27" value="" style="whiteSpace=wrap;html=1;align=center;rotation=90;" vertex="1" parent="1">
          <mxGeometry x="1584.625" y="462.5" width="32.75" height="25.12" as="geometry" />
        </mxCell>
        <mxCell id="0GYotIsLfdEvZDWinw6n-28" value="" style="endArrow=none;html=1;rounded=0;entryX=0;entryY=0.5;entryDx=0;entryDy=0;exitX=0.5;exitY=1;exitDx=0;exitDy=0;" edge="1" parent="1" target="0GYotIsLfdEvZDWinw6n-27" source="Pr3GQYdpATsWxthIxdoF-110">
          <mxGeometry relative="1" as="geometry">
            <mxPoint x="1613" y="460" as="sourcePoint" />
            <mxPoint x="2295.685" y="480" as="targetPoint" />
          </mxGeometry>
        </mxCell>
        <mxCell id="0GYotIsLfdEvZDWinw6n-29" value="" style="whiteSpace=wrap;html=1;align=center;rotation=90;" vertex="1" parent="1">
          <mxGeometry x="1747.255" y="462.5" width="32.75" height="25.12" as="geometry" />
        </mxCell>
        <mxCell id="0GYotIsLfdEvZDWinw6n-30" value="" style="endArrow=none;html=1;rounded=0;entryX=0;entryY=0.5;entryDx=0;entryDy=0;exitX=0.5;exitY=1;exitDx=0;exitDy=0;" edge="1" parent="1" target="0GYotIsLfdEvZDWinw6n-29" source="Pr3GQYdpATsWxthIxdoF-141">
          <mxGeometry relative="1" as="geometry">
            <mxPoint x="1683" y="500" as="sourcePoint" />
            <mxPoint x="2388.245" y="540" as="targetPoint" />
          </mxGeometry>
        </mxCell>
        <mxCell id="0GYotIsLfdEvZDWinw6n-32" value="" style="endArrow=none;html=1;rounded=0;entryX=0;entryY=0.5;entryDx=0;entryDy=0;exitX=0.5;exitY=1;exitDx=0;exitDy=0;" edge="1" parent="1" target="0GYotIsLfdEvZDWinw6n-31" source="Pr3GQYdpATsWxthIxdoF-139">
          <mxGeometry relative="1" as="geometry">
            <mxPoint x="1782.5600000000002" y="490" as="sourcePoint" />
            <mxPoint x="2488.245" y="530" as="targetPoint" />
          </mxGeometry>
        </mxCell>
        <mxCell id="0GYotIsLfdEvZDWinw6n-33" value="" style="whiteSpace=wrap;html=1;align=center;rotation=90;" vertex="1" parent="1">
          <mxGeometry x="1880.005" y="570" width="32.75" height="25.12" as="geometry" />
        </mxCell>
        <mxCell id="0GYotIsLfdEvZDWinw6n-34" value="" style="endArrow=none;html=1;rounded=0;entryX=0;entryY=0.5;entryDx=0;entryDy=0;exitX=0.5;exitY=1;exitDx=0;exitDy=0;" edge="1" parent="1" target="0GYotIsLfdEvZDWinw6n-33" source="Pr3GQYdpATsWxthIxdoF-138">
          <mxGeometry relative="1" as="geometry">
            <mxPoint x="1852.5600000000002" y="590" as="sourcePoint" />
            <mxPoint x="2558.245" y="630" as="targetPoint" />
          </mxGeometry>
        </mxCell>
        <mxCell id="0GYotIsLfdEvZDWinw6n-35" value="" style="whiteSpace=wrap;html=1;align=center;rotation=90;" vertex="1" parent="1">
          <mxGeometry x="2003.6250000000005" y="572.38" width="32.75" height="25.12" as="geometry" />
        </mxCell>
        <mxCell id="0GYotIsLfdEvZDWinw6n-36" value="" style="endArrow=none;html=1;rounded=0;entryX=0;entryY=0.5;entryDx=0;entryDy=0;exitX=0.5;exitY=1;exitDx=0;exitDy=0;" edge="1" parent="1" target="0GYotIsLfdEvZDWinw6n-35" source="Pr3GQYdpATsWxthIxdoF-137">
          <mxGeometry relative="1" as="geometry">
            <mxPoint x="1972.5600000000002" y="580" as="sourcePoint" />
            <mxPoint x="2678.245" y="620" as="targetPoint" />
          </mxGeometry>
        </mxCell>
        <mxCell id="0GYotIsLfdEvZDWinw6n-37" value="" style="whiteSpace=wrap;html=1;align=center;rotation=90;" vertex="1" parent="1">
          <mxGeometry x="2120.0050000000006" y="570" width="32.75" height="25.12" as="geometry" />
        </mxCell>
        <mxCell id="0GYotIsLfdEvZDWinw6n-38" value="" style="endArrow=none;html=1;rounded=0;entryX=0;entryY=0.5;entryDx=0;entryDy=0;exitX=0.5;exitY=1;exitDx=0;exitDy=0;" edge="1" parent="1" target="0GYotIsLfdEvZDWinw6n-37" source="Pr3GQYdpATsWxthIxdoF-136">
          <mxGeometry relative="1" as="geometry">
            <mxPoint x="2112.5600000000004" y="580" as="sourcePoint" />
            <mxPoint x="2818.245" y="620" as="targetPoint" />
          </mxGeometry>
        </mxCell>
        <mxCell id="0GYotIsLfdEvZDWinw6n-31" value="" style="whiteSpace=wrap;html=1;align=center;rotation=90;" vertex="1" parent="1">
          <mxGeometry x="1867.2450000000003" y="462.5" width="32.75" height="25.12" as="geometry" />
        </mxCell>
        <mxCell id="0GYotIsLfdEvZDWinw6n-41" value="" style="endArrow=none;html=1;rounded=0;exitX=0.5;exitY=0;exitDx=0;exitDy=0;entryX=0.5;entryY=1;entryDx=0;entryDy=0;" edge="1" parent="1" source="Pr3GQYdpATsWxthIxdoF-138" target="Pr3GQYdpATsWxthIxdoF-140">
          <mxGeometry width="50" height="50" relative="1" as="geometry">
            <mxPoint x="1960" y="480" as="sourcePoint" />
            <mxPoint x="2010" y="430" as="targetPoint" />
          </mxGeometry>
        </mxCell>
        <mxCell id="0GYotIsLfdEvZDWinw6n-42" value="" style="html=1;verticalAlign=bottom;endArrow=open;dashed=1;endSize=8;curved=0;rounded=0;exitX=1;exitY=0.5;exitDx=0;exitDy=0;entryX=0.5;entryY=1;entryDx=0;entryDy=0;" edge="1" parent="1" source="Pr3GQYdpATsWxthIxdoF-29" target="Pr3GQYdpATsWxthIxdoF-21">
          <mxGeometry relative="1" as="geometry">
            <mxPoint x="931.56" y="720" as="sourcePoint" />
            <mxPoint x="140" y="680" as="targetPoint" />
            <Array as="points">
              <mxPoint x="960" y="290" />
              <mxPoint x="960" y="680" />
              <mxPoint x="146" y="680" />
            </Array>
          </mxGeometry>
        </mxCell>
        <mxCell id="0GYotIsLfdEvZDWinw6n-43" value="" style="html=1;verticalAlign=bottom;endArrow=open;dashed=1;endSize=8;curved=0;rounded=0;exitX=1;exitY=0.5;exitDx=0;exitDy=0;entryX=0;entryY=1;entryDx=0;entryDy=0;" edge="1" parent="1" source="Pr3GQYdpATsWxthIxdoF-28" target="Pr3GQYdpATsWxthIxdoF-21">
          <mxGeometry relative="1" as="geometry">
            <mxPoint x="1280" y="680" as="sourcePoint" />
            <mxPoint x="100" y="720" as="targetPoint" />
            <Array as="points">
              <mxPoint x="1310" y="290" />
              <mxPoint x="1310" y="710" />
              <mxPoint x="129" y="710" />
            </Array>
          </mxGeometry>
        </mxCell>
        <mxCell id="0GYotIsLfdEvZDWinw6n-44" value="" style="html=1;verticalAlign=bottom;endArrow=open;dashed=1;endSize=8;curved=0;rounded=0;exitX=1;exitY=0.5;exitDx=0;exitDy=0;entryX=0;entryY=0;entryDx=0;entryDy=0;" edge="1" parent="1" source="Pr3GQYdpATsWxthIxdoF-27" target="Pr3GQYdpATsWxthIxdoF-21">
          <mxGeometry relative="1" as="geometry">
            <mxPoint x="1920" y="100" as="sourcePoint" />
            <mxPoint x="111" y="290" as="targetPoint" />
            <Array as="points">
              <mxPoint x="2560" y="300" />
              <mxPoint x="2560" y="760" />
              <mxPoint x="80" y="750" />
              <mxPoint x="80" y="275" />
            </Array>
          </mxGeometry>
        </mxCell>
        <mxCell id="0GYotIsLfdEvZDWinw6n-45" value="" style="html=1;verticalAlign=bottom;endArrow=open;dashed=1;endSize=8;curved=0;rounded=0;exitX=0.5;exitY=1;exitDx=0;exitDy=0;entryX=0;entryY=0.5;entryDx=0;entryDy=0;" edge="1" parent="1" source="Pr3GQYdpATsWxthIxdoF-22" target="Pr3GQYdpATsWxthIxdoF-23">
          <mxGeometry relative="1" as="geometry">
            <mxPoint x="2190" y="670" as="sourcePoint" />
            <mxPoint x="1680" y="350" as="targetPoint" />
            <Array as="points">
              <mxPoint x="2195" y="670" />
              <mxPoint x="1690" y="670" />
              <mxPoint x="1690" y="290" />
            </Array>
          </mxGeometry>
        </mxCell>
        <mxCell id="0GYotIsLfdEvZDWinw6n-46" value="" style="html=1;verticalAlign=bottom;endArrow=open;dashed=1;endSize=8;curved=0;rounded=0;exitX=1;exitY=0.5;exitDx=0;exitDy=0;entryX=0;entryY=0.5;entryDx=0;entryDy=0;" edge="1" parent="1" source="Pr3GQYdpATsWxthIxdoF-24" target="Pr3GQYdpATsWxthIxdoF-21">
          <mxGeometry relative="1" as="geometry">
            <mxPoint x="1940" y="60" as="sourcePoint" />
            <mxPoint x="330" y="730" as="targetPoint" />
            <Array as="points">
              <mxPoint x="1670" y="290" />
              <mxPoint x="1670" y="730" />
              <mxPoint x="90" y="730" />
              <mxPoint x="90" y="290" />
            </Array>
          </mxGeometry>
        </mxCell>
      </root>
    </mxGraphModel>
  </diagram>
</mxfile>
